<svg width="204" height="76" viewBox="0 0 204 76" fill="none" xmlns="http://www.w3.org/2000/svg">
<path d="M0.555 11.765C0.555 10.745 0.79 9.83 1.26 9.02C1.74 8.21 2.385 7.58 3.195 7.13C4.015 6.67 4.91 6.44 5.88 6.44C6.99 6.44 7.975 6.715 8.835 7.265C9.705 7.805 10.335 8.575 10.725 9.575H8.67C8.4 9.025 8.025 8.615 7.545 8.345C7.065 8.075 6.51 7.94 5.88 7.94C5.19 7.94 4.575 8.095 4.035 8.405C3.495 8.715 3.07 9.16 2.76 9.74C2.46 10.32 2.31 10.995 2.31 11.765C2.31 12.535 2.46 13.21 2.76 13.79C3.07 14.37 3.495 14.82 4.035 15.14C4.575 15.45 5.19 15.605 5.88 15.605C6.51 15.605 7.065 15.47 7.545 15.2C8.025 14.93 8.4 14.52 8.67 13.97H10.725C10.335 14.97 9.705 15.74 8.835 16.28C7.975 16.82 6.99 17.09 5.88 17.09C4.9 17.09 4.005 16.865 3.195 16.415C2.385 15.955 1.74 15.32 1.26 14.51C0.79 13.7 0.555 12.785 0.555 11.765ZM14.4366 5.9V17H12.7266V5.9H14.4366ZM16.1116 12.83C16.1116 12 16.2816 11.265 16.6216 10.625C16.9716 9.985 17.4416 9.49 18.0316 9.14C18.6316 8.78 19.2916 8.6 20.0116 8.6C20.6616 8.6 21.2266 8.73 21.7066 8.99C22.1966 9.24 22.5866 9.555 22.8766 9.935V8.735H24.6016V17H22.8766V15.77C22.5866 16.16 22.1916 16.485 21.6916 16.745C21.1916 17.005 20.6216 17.135 19.9816 17.135C19.2716 17.135 18.6216 16.955 18.0316 16.595C17.4416 16.225 16.9716 15.715 16.6216 15.065C16.2816 14.405 16.1116 13.66 16.1116 12.83ZM22.8766 12.86C22.8766 12.29 22.7566 11.795 22.5166 11.375C22.2866 10.955 21.9816 10.635 21.6016 10.415C21.2216 10.195 20.8116 10.085 20.3716 10.085C19.9316 10.085 19.5216 10.195 19.1416 10.415C18.7616 10.625 18.4516 10.94 18.2116 11.36C17.9816 11.77 17.8666 12.26 17.8666 12.83C17.8666 13.4 17.9816 13.9 18.2116 14.33C18.4516 14.76 18.7616 15.09 19.1416 15.32C19.5316 15.54 19.9416 15.65 20.3716 15.65C20.8116 15.65 21.2216 15.54 21.6016 15.32C21.9816 15.1 22.2866 14.78 22.5166 14.36C22.7566 13.93 22.8766 13.43 22.8766 12.86ZM34.3327 8.735V17H32.6227V16.025C32.3527 16.365 31.9977 16.635 31.5577 16.835C31.1277 17.025 30.6677 17.12 30.1777 17.12C29.5277 17.12 28.9427 16.985 28.4227 16.715C27.9127 16.445 27.5077 16.045 27.2077 15.515C26.9177 14.985 26.7727 14.345 26.7727 13.595V8.735H28.4677V13.34C28.4677 14.08 28.6527 14.65 29.0227 15.05C29.3927 15.44 29.8977 15.635 30.5377 15.635C31.1777 15.635 31.6827 15.44 32.0527 15.05C32.4327 14.65 32.6227 14.08 32.6227 13.34V8.735H34.3327ZM38.2989 9.935C38.5489 9.515 38.8789 9.19 39.2889 8.96C39.7089 8.72 40.2039 8.6 40.7739 8.6V10.37H40.3389C39.6689 10.37 39.1589 10.54 38.8089 10.88C38.4689 11.22 38.2989 11.81 38.2989 12.65V17H36.5889V8.735H38.2989V9.935ZM41.7757 12.83C41.7757 12 41.9457 11.265 42.2857 10.625C42.6357 9.985 43.1057 9.49 43.6957 9.14C44.2957 8.78 44.9557 8.6 45.6757 8.6C46.3257 8.6 46.8907 8.73 47.3707 8.99C47.8607 9.24 48.2507 9.555 48.5407 9.935V8.735H50.2657V17H48.5407V15.77C48.2507 16.16 47.8557 16.485 47.3557 16.745C46.8557 17.005 46.2857 17.135 45.6457 17.135C44.9357 17.135 44.2857 16.955 43.6957 16.595C43.1057 16.225 42.6357 15.715 42.2857 15.065C41.9457 14.405 41.7757 13.66 41.7757 12.83ZM48.5407 12.86C48.5407 12.29 48.4207 11.795 48.1807 11.375C47.9507 10.955 47.6457 10.635 47.2657 10.415C46.8857 10.195 46.4757 10.085 46.0357 10.085C45.5957 10.085 45.1857 10.195 44.8057 10.415C44.4257 10.625 44.1157 10.94 43.8757 11.36C43.6457 11.77 43.5307 12.26 43.5307 12.83C43.5307 13.4 43.6457 13.9 43.8757 14.33C44.1157 14.76 44.4257 15.09 44.8057 15.32C45.1957 15.54 45.6057 15.65 46.0357 15.65C46.4757 15.65 46.8857 15.54 47.2657 15.32C47.6457 15.1 47.9507 14.78 48.1807 14.36C48.4207 13.93 48.5407 13.43 48.5407 12.86ZM55.5117 17.135C54.8617 17.135 54.2767 17.02 53.7567 16.79C53.2467 16.55 52.8417 16.23 52.5417 15.83C52.2417 15.42 52.0817 14.965 52.0617 14.465H53.8317C53.8617 14.815 54.0267 15.11 54.3267 15.35C54.6367 15.58 55.0217 15.695 55.4817 15.695C55.9617 15.695 56.3317 15.605 56.5917 15.425C56.8617 15.235 56.9967 14.995 56.9967 14.705C56.9967 14.395 56.8467 14.165 56.5467 14.015C56.2567 13.865 55.7917 13.7 55.1517 13.52C54.5317 13.35 54.0267 13.185 53.6367 13.025C53.2467 12.865 52.9067 12.62 52.6167 12.29C52.3367 11.96 52.1967 11.525 52.1967 10.985C52.1967 10.545 52.3267 10.145 52.5867 9.785C52.8467 9.415 53.2167 9.125 53.6967 8.915C54.1867 8.705 54.7467 8.6 55.3767 8.6C56.3167 8.6 57.0717 8.84 57.6417 9.32C58.2217 9.79 58.5317 10.435 58.5717 11.255H56.8617C56.8317 10.885 56.6817 10.59 56.4117 10.37C56.1417 10.15 55.7767 10.04 55.3167 10.04C54.8667 10.04 54.5217 10.125 54.2817 10.295C54.0417 10.465 53.9217 10.69 53.9217 10.97C53.9217 11.19 54.0017 11.375 54.1617 11.525C54.3217 11.675 54.5167 11.795 54.7467 11.885C54.9767 11.965 55.3167 12.07 55.7667 12.2C56.3667 12.36 56.8567 12.525 57.2367 12.695C57.6267 12.855 57.9617 13.095 58.2417 13.415C58.5217 13.735 58.6667 14.16 58.6767 14.69C58.6767 15.16 58.5467 15.58 58.2867 15.95C58.0267 16.32 57.6567 16.61 57.1767 16.82C56.7067 17.03 56.1517 17.135 55.5117 17.135ZM75.4009 6.575V17H73.6909V9.86L70.5109 17H69.3259L66.1309 9.86V17H64.4209V6.575H66.2659L69.9259 14.75L73.5709 6.575H75.4009ZM81.2334 17.135C80.4534 17.135 79.7484 16.96 79.1184 16.61C78.4884 16.25 77.9934 15.75 77.6334 15.11C77.2734 14.46 77.0934 13.71 77.0934 12.86C77.0934 12.02 77.2784 11.275 77.6484 10.625C78.0184 9.975 78.5234 9.475 79.1634 9.125C79.8034 8.775 80.5184 8.6 81.3084 8.6C82.0984 8.6 82.8134 8.775 83.4534 9.125C84.0934 9.475 84.5984 9.975 84.9684 10.625C85.3384 11.275 85.5234 12.02 85.5234 12.86C85.5234 13.7 85.3334 14.445 84.9534 15.095C84.5734 15.745 84.0534 16.25 83.3934 16.61C82.7434 16.96 82.0234 17.135 81.2334 17.135ZM81.2334 15.65C81.6734 15.65 82.0834 15.545 82.4634 15.335C82.8534 15.125 83.1684 14.81 83.4084 14.39C83.6484 13.97 83.7684 13.46 83.7684 12.86C83.7684 12.26 83.6534 11.755 83.4234 11.345C83.1934 10.925 82.8884 10.61 82.5084 10.4C82.1284 10.19 81.7184 10.085 81.2784 10.085C80.8384 10.085 80.4284 10.19 80.0484 10.4C79.6784 10.61 79.3834 10.925 79.1634 11.345C78.9434 11.755 78.8334 12.26 78.8334 12.86C78.8334 13.75 79.0584 14.44 79.5084 14.93C79.9684 15.41 80.5434 15.65 81.2334 15.65ZM91.3839 8.6C92.0339 8.6 92.6139 8.735 93.1239 9.005C93.6439 9.275 94.0489 9.675 94.3389 10.205C94.6289 10.735 94.7739 11.375 94.7739 12.125V17H93.0789V12.38C93.0789 11.64 92.8939 11.075 92.5239 10.685C92.1539 10.285 91.6489 10.085 91.0089 10.085C90.3689 10.085 89.8589 10.285 89.4789 10.685C89.1089 11.075 88.9239 11.64 88.9239 12.38V17H87.2139V8.735H88.9239V9.68C89.2039 9.34 89.5589 9.075 89.9889 8.885C90.4289 8.695 90.8939 8.6 91.3839 8.6ZM98.9501 10.13V14.705C98.9501 15.015 99.0201 15.24 99.1601 15.38C99.3101 15.51 99.5601 15.575 99.9101 15.575H100.96V17H99.6101C98.8401 17 98.2501 16.82 97.8401 16.46C97.4301 16.1 97.2251 15.515 97.2251 14.705V10.13H96.2501V8.735H97.2251V6.68H98.9501V8.735H100.96V10.13H98.9501ZM101.966 12.83C101.966 12 102.136 11.265 102.476 10.625C102.826 9.985 103.296 9.49 103.886 9.14C104.486 8.78 105.146 8.6 105.866 8.6C106.516 8.6 107.081 8.73 107.561 8.99C108.051 9.24 108.441 9.555 108.731 9.935V8.735H110.456V17H108.731V15.77C108.441 16.16 108.046 16.485 107.546 16.745C107.046 17.005 106.476 17.135 105.836 17.135C105.126 17.135 104.476 16.955 103.886 16.595C103.296 16.225 102.826 15.715 102.476 15.065C102.136 14.405 101.966 13.66 101.966 12.83ZM108.731 12.86C108.731 12.29 108.611 11.795 108.371 11.375C108.141 10.955 107.836 10.635 107.456 10.415C107.076 10.195 106.666 10.085 106.226 10.085C105.786 10.085 105.376 10.195 104.996 10.415C104.616 10.625 104.306 10.94 104.066 11.36C103.836 11.77 103.721 12.26 103.721 12.83C103.721 13.4 103.836 13.9 104.066 14.33C104.306 14.76 104.616 15.09 104.996 15.32C105.386 15.54 105.796 15.65 106.226 15.65C106.666 15.65 107.076 15.54 107.456 15.32C107.836 15.1 108.141 14.78 108.371 14.36C108.611 13.93 108.731 13.43 108.731 12.86ZM116.872 8.6C117.522 8.6 118.102 8.735 118.612 9.005C119.132 9.275 119.537 9.675 119.827 10.205C120.117 10.735 120.262 11.375 120.262 12.125V17H118.567V12.38C118.567 11.64 118.382 11.075 118.012 10.685C117.642 10.285 117.137 10.085 116.497 10.085C115.857 10.085 115.347 10.285 114.967 10.685C114.597 11.075 114.412 11.64 114.412 12.38V17H112.702V8.735H114.412V9.68C114.692 9.34 115.047 9.075 115.477 8.885C115.917 8.695 116.382 8.6 116.872 8.6ZM123.313 7.64C123.003 7.64 122.743 7.535 122.533 7.325C122.323 7.115 122.218 6.855 122.218 6.545C122.218 6.235 122.323 5.975 122.533 5.765C122.743 5.555 123.003 5.45 123.313 5.45C123.613 5.45 123.868 5.555 124.078 5.765C124.288 5.975 124.393 6.235 124.393 6.545C124.393 6.855 124.288 7.115 124.078 7.325C123.868 7.535 123.613 7.64 123.313 7.64ZM124.153 8.735V17H122.443V8.735H124.153ZM137.585 9.68C137.585 10.21 137.46 10.71 137.21 11.18C136.96 11.65 136.56 12.035 136.01 12.335C135.46 12.625 134.755 12.77 133.895 12.77H132.005V17H130.295V6.575H133.895C134.695 6.575 135.37 6.715 135.92 6.995C136.48 7.265 136.895 7.635 137.165 8.105C137.445 8.575 137.585 9.1 137.585 9.68ZM133.895 11.375C134.545 11.375 135.03 11.23 135.35 10.94C135.67 10.64 135.83 10.22 135.83 9.68C135.83 8.54 135.185 7.97 133.895 7.97H132.005V11.375H133.895ZM140.926 5.9V17H139.216V5.9H140.926ZM142.601 12.83C142.601 12 142.771 11.265 143.111 10.625C143.461 9.985 143.931 9.49 144.521 9.14C145.121 8.78 145.781 8.6 146.501 8.6C147.151 8.6 147.716 8.73 148.196 8.99C148.686 9.24 149.076 9.555 149.366 9.935V8.735H151.091V17H149.366V15.77C149.076 16.16 148.681 16.485 148.181 16.745C147.681 17.005 147.111 17.135 146.471 17.135C145.761 17.135 145.111 16.955 144.521 16.595C143.931 16.225 143.461 15.715 143.111 15.065C142.771 14.405 142.601 13.66 142.601 12.83ZM149.366 12.86C149.366 12.29 149.246 11.795 149.006 11.375C148.776 10.955 148.471 10.635 148.091 10.415C147.711 10.195 147.301 10.085 146.861 10.085C146.421 10.085 146.011 10.195 145.631 10.415C145.251 10.625 144.941 10.94 144.701 11.36C144.471 11.77 144.356 12.26 144.356 12.83C144.356 13.4 144.471 13.9 144.701 14.33C144.941 14.76 145.251 15.09 145.631 15.32C146.021 15.54 146.431 15.65 146.861 15.65C147.301 15.65 147.711 15.54 148.091 15.32C148.471 15.1 148.776 14.78 149.006 14.36C149.246 13.93 149.366 13.43 149.366 12.86ZM160.777 8.735L155.707 20.885H153.937L155.617 16.865L152.362 8.735H154.267L156.592 15.035L159.007 8.735H160.777ZM165.067 17.135C164.417 17.135 163.832 17.02 163.312 16.79C162.802 16.55 162.397 16.23 162.097 15.83C161.797 15.42 161.637 14.965 161.617 14.465H163.387C163.417 14.815 163.582 15.11 163.882 15.35C164.192 15.58 164.577 15.695 165.037 15.695C165.517 15.695 165.887 15.605 166.147 15.425C166.417 15.235 166.552 14.995 166.552 14.705C166.552 14.395 166.402 14.165 166.102 14.015C165.812 13.865 165.347 13.7 164.707 13.52C164.087 13.35 163.582 13.185 163.192 13.025C162.802 12.865 162.462 12.62 162.172 12.29C161.892 11.96 161.752 11.525 161.752 10.985C161.752 10.545 161.882 10.145 162.142 9.785C162.402 9.415 162.772 9.125 163.252 8.915C163.742 8.705 164.302 8.6 164.932 8.6C165.872 8.6 166.627 8.84 167.197 9.32C167.777 9.79 168.087 10.435 168.127 11.255H166.417C166.387 10.885 166.237 10.59 165.967 10.37C165.697 10.15 165.332 10.04 164.872 10.04C164.422 10.04 164.077 10.125 163.837 10.295C163.597 10.465 163.477 10.69 163.477 10.97C163.477 11.19 163.557 11.375 163.717 11.525C163.877 11.675 164.072 11.795 164.302 11.885C164.532 11.965 164.872 12.07 165.322 12.2C165.922 12.36 166.412 12.525 166.792 12.695C167.182 12.855 167.517 13.095 167.797 13.415C168.077 13.735 168.222 14.16 168.232 14.69C168.232 15.16 168.102 15.58 167.842 15.95C167.582 16.32 167.212 16.61 166.732 16.82C166.262 17.03 165.707 17.135 165.067 17.135ZM177.565 8.735V17H175.855V16.025C175.585 16.365 175.23 16.635 174.79 16.835C174.36 17.025 173.9 17.12 173.41 17.12C172.76 17.12 172.175 16.985 171.655 16.715C171.145 16.445 170.74 16.045 170.44 15.515C170.15 14.985 170.005 14.345 170.005 13.595V8.735H171.7V13.34C171.7 14.08 171.885 14.65 172.255 15.05C172.625 15.44 173.13 15.635 173.77 15.635C174.41 15.635 174.915 15.44 175.285 15.05C175.665 14.65 175.855 14.08 175.855 13.34V8.735H177.565ZM180.691 7.64C180.381 7.64 180.121 7.535 179.911 7.325C179.701 7.115 179.596 6.855 179.596 6.545C179.596 6.235 179.701 5.975 179.911 5.765C180.121 5.555 180.381 5.45 180.691 5.45C180.991 5.45 181.246 5.555 181.456 5.765C181.666 5.975 181.771 6.235 181.771 6.545C181.771 6.855 181.666 7.115 181.456 7.325C181.246 7.535 180.991 7.64 180.691 7.64ZM181.531 8.735V17H179.821V8.735H181.531ZM185.771 10.13V14.705C185.771 15.015 185.841 15.24 185.981 15.38C186.131 15.51 186.381 15.575 186.731 15.575H187.781V17H186.431C185.661 17 185.071 16.82 184.661 16.46C184.251 16.1 184.046 15.515 184.046 14.705V10.13H183.071V8.735H184.046V6.68H185.771V8.735H187.781V10.13H185.771Z" fill="black"/>
<path d="M10 55L12.2451 61.9098H19.5106L13.6327 66.1803L15.8779 73.0902L10 68.8197L4.12215 73.0902L6.36729 66.1803L0.489435 61.9098H7.75486L10 55Z" fill="#FFCE0C"/>
<path d="M30 55L32.2451 61.9098H39.5106L33.6327 66.1803L35.8779 73.0902L30 68.8197L24.1221 73.0902L26.3673 66.1803L20.4894 61.9098H27.7549L30 55Z" fill="#FFCE0C"/>
<path d="M51.7695 62.0645L51.8818 62.4102H57.9707L53.3389 65.7754L53.0449 65.9893L53.1572 66.335L54.9258 71.7803L50.2939 68.415L50 68.2012L49.7061 68.415L45.0732 71.7803L46.8428 66.335L46.9551 65.9893L46.6611 65.7754L42.0293 62.4102H48.1182L48.2305 62.0645L50 56.6172L51.7695 62.0645Z" fill="#FFCE0C" stroke="#FFCE0C"/>
<path d="M71.7695 62.0645L71.8818 62.4102H77.9707L73.3389 65.7754L73.0449 65.9893L73.1572 66.335L74.9258 71.7803L70.2939 68.415L70 68.2012L69.7061 68.415L65.0732 71.7803L66.8428 66.335L66.9551 65.9893L66.6611 65.7754L62.0293 62.4102H68.1182L68.2305 62.0645L70 56.6172L71.7695 62.0645Z" fill="white" stroke="#FFCE0C"/>
<path d="M91.7695 62.0645L91.8818 62.4102H97.9707L93.3389 65.7754L93.0449 65.9893L93.1572 66.335L94.9258 71.7803L90.2939 68.415L90 68.2012L89.7061 68.415L85.0732 71.7803L86.8428 66.335L86.9551 65.9893L86.6611 65.7754L82.0293 62.4102H88.1182L88.2305 62.0645L90 56.6172L91.7695 62.0645Z" fill="white" stroke="#FFCE0C"/>
<path d="M104.273 60.62V60.046H106.345V70H105.715V60.62H104.273ZM110.598 64.862C109.945 64.694 109.455 64.4047 109.128 63.994C108.802 63.5833 108.638 63.0887 108.638 62.51C108.638 61.7447 108.923 61.124 109.492 60.648C110.071 60.172 110.869 59.934 111.886 59.934C112.904 59.934 113.697 60.172 114.266 60.648C114.845 61.124 115.134 61.7447 115.134 62.51C115.134 63.0793 114.971 63.574 114.644 63.994C114.318 64.4047 113.828 64.694 113.174 64.862C113.874 65.0113 114.42 65.31 114.812 65.758C115.214 66.206 115.414 66.766 115.414 67.438C115.414 68.3247 115.097 69.0293 114.462 69.552C113.837 70.0653 112.978 70.322 111.886 70.322C110.794 70.322 109.936 70.0653 109.31 69.552C108.685 69.0293 108.372 68.3247 108.372 67.438C108.372 66.766 108.568 66.206 108.96 65.758C109.362 65.3007 109.908 65.002 110.598 64.862ZM114.518 62.552C114.518 61.8893 114.28 61.376 113.804 61.012C113.328 60.648 112.689 60.466 111.886 60.466C111.084 60.466 110.444 60.648 109.968 61.012C109.492 61.3667 109.254 61.8847 109.254 62.566C109.254 63.21 109.492 63.7187 109.968 64.092C110.444 64.456 111.084 64.638 111.886 64.638C112.689 64.638 113.328 64.4513 113.804 64.078C114.28 63.7047 114.518 63.196 114.518 62.552ZM111.886 65.142C111.037 65.142 110.337 65.3287 109.786 65.702C109.245 66.0753 108.974 66.6493 108.974 67.424C108.974 68.1613 109.236 68.74 109.758 69.16C110.29 69.58 111 69.79 111.886 69.79C112.773 69.79 113.478 69.58 114 69.16C114.523 68.74 114.784 68.1613 114.784 67.424C114.784 66.6587 114.514 66.0893 113.972 65.716C113.431 65.3333 112.736 65.142 111.886 65.142ZM116.579 67.48V66.99L121.913 60.088H122.627V66.934H124.223V67.48H122.627V70H122.011V67.48H116.579ZM122.025 60.844L117.321 66.934H122.025V60.844Z" fill="black"/>
</svg>
