<svg width="154" height="51" viewBox="0 0 154 51" fill="none" xmlns="http://www.w3.org/2000/svg">
<path d="M100.338 0C89.4175 0 79.6127 5.82 79.6127 16.5C79.6127 28.8 96.9325 29.64 96.9325 35.76C96.9325 38.34 93.9969 40.68 89.0652 40.68C82.0198 40.68 76.7358 37.44 76.7358 37.44L74.5048 48.24C74.5048 48.24 80.552 51 88.6542 51C100.631 51 110.025 44.94 110.025 34.02C110.025 21.06 92.6466 20.22 92.6466 14.52C92.6466 12.48 95.0538 10.26 99.9855 10.26C105.563 10.26 110.143 12.6 110.143 12.6L112.374 2.16C112.315 2.16 107.324 0 100.338 0ZM0.293557 0.78L0 2.34C0 2.34 4.57949 3.18 8.748 4.92C14.0907 6.9 14.443 8.04 15.3824 11.58L25.1872 50.16H38.3385L58.4766 0.78H45.3839L32.4087 34.38L27.1247 5.88C26.655 2.64 24.1891 0.78 21.1361 0.78H0.293557ZM63.7606 0.78L53.4861 50.16H65.9916L76.2074 0.78H63.7606ZM133.392 0.78C130.398 0.78 128.813 2.4 127.639 5.28L109.321 50.16H122.413L124.938 42.66H140.907L142.434 50.16H154L143.96 0.78H133.392ZM135.095 14.16L138.97 32.7H128.578L135.095 14.16Z" fill="#1434CB"/>
</svg>
